<svg id="Layer_1" enable-background="new 0 0 512 512" viewBox="0 0 512 512" xmlns="http://www.w3.org/2000/svg"><g clip-rule="evenodd" fill-rule="evenodd"><path d="m262.4 112.1c74.1 6.7 128.7 72.2 122 146.3-2.5 28-13.4 53.1-30 73.3l18.2 41.4-48.2-14.4c-24.6 16.2-54.6 24.5-86.2 21.7-74.1-6.7-128.7-72.2-122-146.3s72.1-128.7 146.2-122z" fill="#7fcbb4"/><path d="m303.9 122.7c49.4 21.5 82.7 71.4 81 127.5h-16.9c-8.6 0-15.7-7-15.7-15.6 0-.6 0-1.2.1-1.7h-23.3c-13.9 0-25.3-11.4-25.3-25.3v-84.9z" fill="#5c9685"/><path d="m229.4 379.3c-50.4-7.9-90.7-43.2-106.5-89.1h81.2c13.9 0 25.3 11.4 25.3 25.3z" fill="#5c9685"/><path d="m127.4 190.9c18.4-40.9 56.5-70.4 101.2-77.6v43.5c0 18.8-15.4 34.2-34.2 34.2h-12.5v43.8l-41.5-43.8h-13z" fill="#5c9685"/><path d="m188.2 463.5h-134.8c-13.9 0-25.3-11.4-25.3-25.3v-134.7c0-13.9 11.4-25.3 25.3-25.3h134.7c13.9 0 25.3 11.4 25.3 25.3v134.7c.1 13.9-11.3 25.3-25.2 25.3z" fill="#00b2ca"/><path d="m139.7 395.1h-37.8c-26.6 0-48.5 21.3-48.5 47.3 0 7.6.4 15.9.4 22.8 0 8.6 7 15.6 15.6 15.6h79.8c8.6 0 15.7-7 15.7-15.6 0-.6 0-1.2-.1-1.7h23.3v-21.1c.1-26-21.8-47.3-48.4-47.3z" fill="#fcb13b"/><path d="m120.8 331.6c-18.5 0-33.4 15-33.4 33.4 0 18.5 15 33.4 33.4 33.4 18.5 0 33.5-15 33.5-33.4s-15-33.4-33.5-33.4z" fill="#fad1a2"/></g><path d="m96.9 457.6c-4.4 0-8-3.6-8-8s3.6-8 8-8h52c6.5 0 12.4 2.7 16.7 6.9s6.9 10.2 6.9 16.7c0 4.4-3.6 8-8 8s-8-3.6-8-8c0-2.1-.9-4-2.3-5.4s-3.3-2.2-5.4-2.2z" fill="#dd6e42"/><path clip-rule="evenodd" d="m317.9 216.2h134.7c13.9 0 25.3-11.4 25.3-25.3v-134.7c0-13.9-11.4-25.3-25.3-25.3h-134.7c-13.9 0-25.3 11.4-25.3 25.3v134.7c0 13.9 11.4 25.3 25.3 25.3z" fill="#00b2ca" fill-rule="evenodd"/><path clip-rule="evenodd" d="m366.4 147.8h37.8c26.7 0 48.5 21.3 48.5 47.3 0 7.6-.4 15.9-.4 22.8 0 8.6-7.1 15.6-15.7 15.6h-79.8c-8.6 0-15.6-7-15.6-15.6 0-.6 0-1.2.1-1.7h-23.3v-21.1c-.1-26 21.7-47.3 48.4-47.3z" fill="#fcb13b" fill-rule="evenodd"/><path clip-rule="evenodd" d="m385.3 84.3c18.5 0 33.4 15 33.4 33.4s-15 33.4-33.4 33.4-33.4-15-33.4-33.4 14.9-33.4 33.4-33.4z" fill="#fad1a2" fill-rule="evenodd"/><path d="m409.2 194.3c4.4 0 8 3.6 8 8s-3.6 8-8 8h-52c-2.1 0-4 .9-5.4 2.2-1.4 1.4-2.2 3.3-2.2 5.4 0 4.4-3.6 8-8 8s-8-3.6-8-8c0-6.5 2.7-12.4 6.9-16.7 4.3-4.3 10.2-6.9 16.7-6.9z" fill="#dd6e42"/><path clip-rule="evenodd" d="m422.5 400.7c-3.7 4.5-7.6 8.8-11.8 13.1s-8.6 8.1-13.1 11.8c-6.6 5.3-16 4.8-22-1.2l-9.4-9.4c-5.4-5.4-14.1-5.4-19.4 0l-20.6 20.6c-5.3 5.3-5.3 14.1 0 19.4l2 2 17.6 17.6c5.4 5.4 12.7 7.5 20.2 5.6 24.5-6.1 49.2-19.9 70.2-40.9s34.8-45.8 40.9-70.2c1.9-7.5-.2-14.8-5.6-20.2l-17.6-17.6-2-2c-5.3-5.3-14.1-5.3-19.4 0l-20.5 20.6c-5.4 5.4-5.4 14.1 0 19.4l9.4 9.4c6 5.9 6.4 15.4 1.1 22z" fill="#d71b5a" fill-rule="evenodd"/><path clip-rule="evenodd" d="m180.2 30.9h-117.9c-18.8 0-34.2 15.4-34.2 34.2v81.8c0 18.8 15.4 34.2 34.2 34.2h63.9l41.5 43.8v-43.9h12.5c18.8 0 34.2-15.4 34.2-34.2v-81.7c0-18.8-15.4-34.2-34.2-34.2z" fill="#fcb13b" fill-rule="evenodd"/><path d="m90.6 115c-4.4 0-8-3.6-8-8s3.6-8 8-8h2c4.4 0 8 3.6 8 8s-3.6 8-8 8zm59.4 0c-4.4 0-8-3.6-8-8s3.6-8 8-8h2c4.4 0 8 3.6 8 8s-3.6 8-8 8zm-29.7 0c-4.4 0-8-3.6-8-8s3.6-8 8-8h2c4.4 0 8 3.6 8 8s-3.6 8-8 8z" fill="#fff"/></svg>