<svg id="Capa_1" enable-background="new 0 0 512 512" height="512" viewBox="0 0 512 512" width="512" xmlns="http://www.w3.org/2000/svg"><g><g><g><path d="m52.199 151.129h109.839v208.128h-109.839z" fill="#68dbf9" transform="matrix(-1 0 0 -1 214.236 510.385)"/><path d="m52.199 151.129h109.839v50.279h-109.839z" fill="#21c1f8"/><g><path d="m349.962 151.129h109.839v208.128h-109.839z" fill="#68dbf9"/><g fill="#21c1f8"><path d="m349.963 151.129h109.839v50.279h-109.839z"/><path d="m349.963 151.129h109.839v50.279h-109.839z"/><path d="m429.611 151.129h30.19v208.128h-30.19z"/></g><path d="m457.243 177.714h-402.486c-5.498 0-9.956-4.457-9.956-9.956v-16.265c0-5.499 4.457-9.956 9.956-9.956h402.485c5.498 0 9.956 4.457 9.956 9.956v16.265c0 5.499-4.457 9.956-9.955 9.956z" fill="#8d9da7"/><path d="m349.962 303.872h148.464v208.128h-148.464z" fill="#64b9fc"/><path d="m349.963 303.872h148.464v44.637h-148.464z" fill="#31a7fb"/><path d="m466.199 303.872h32.227v208.128h-32.227z" fill="#31a7fb"/><path d="m13.574 303.872h148.464v208.128h-148.464z" fill="#64b9fc" transform="matrix(-1 0 0 -1 175.611 815.872)"/><path d="m13.574 303.872h148.464v44.637h-148.464z" fill="#31a7fb"/><path d="m502.044 321.961h-492.088c-5.498 0-9.956-4.457-9.956-9.956v-16.265c0-5.499 4.457-9.956 9.956-9.956h492.088c5.499 0 9.956 4.457 9.956 9.956v16.265c0 5.498-4.457 9.956-9.956 9.956z" fill="#8d9da7"/></g><g fill="#c9f0fd"><g><g><path d="m398.922 223.114c-4.268 0-7.726-3.459-7.726-7.726v-6.979c0-4.267 3.459-7.726 7.726-7.726s7.726 3.459 7.726 7.726v6.979c0 4.267-3.459 7.726-7.726 7.726z"/><path d="m423.623 223.114c-4.268 0-7.726-3.459-7.726-7.726v-6.979c0-4.267 3.459-7.726 7.726-7.726s7.726 3.459 7.726 7.726v6.979c0 4.267-3.459 7.726-7.726 7.726z"/></g><g><path d="m398.922 254.29c-4.268 0-7.726-3.459-7.726-7.726v-6.979c0-4.267 3.459-7.726 7.726-7.726s7.726 3.459 7.726 7.726v6.979c0 4.267-3.459 7.726-7.726 7.726z"/><path d="m423.623 254.29c-4.268 0-7.726-3.459-7.726-7.726v-6.979c0-4.267 3.459-7.726 7.726-7.726s7.726 3.459 7.726 7.726v6.979c0 4.267-3.459 7.726-7.726 7.726z"/></g></g><g><g><path d="m88.378 223.114c-4.267 0-7.726-3.459-7.726-7.726v-6.979c0-4.267 3.459-7.726 7.726-7.726s7.726 3.459 7.726 7.726v6.979c0 4.267-3.459 7.726-7.726 7.726z"/><path d="m113.078 223.114c-4.267 0-7.726-3.459-7.726-7.726v-6.979c0-4.267 3.459-7.726 7.726-7.726s7.726 3.459 7.726 7.726v6.979c0 4.267-3.459 7.726-7.726 7.726z"/></g><g><path d="m88.378 254.29c-4.267 0-7.726-3.459-7.726-7.726v-6.979c0-4.267 3.459-7.726 7.726-7.726s7.726 3.459 7.726 7.726v6.979c0 4.267-3.459 7.726-7.726 7.726z"/><path d="m113.078 254.29c-4.267 0-7.726-3.459-7.726-7.726v-6.979c0-4.267 3.459-7.726 7.726-7.726s7.726 3.459 7.726 7.726v6.979c0 4.267-3.459 7.726-7.726 7.726z"/></g></g></g><g><g><path d="m50.676 351.6h57.251c2.845 0 5.151 2.306 5.151 5.151v18.403c0 2.845-2.306 5.151-5.151 5.151h-57.251c-2.845 0-5.151-2.306-5.151-5.151v-18.403c0-2.845 2.306-5.151 5.151-5.151z" fill="#c9f0fd"/><path d="m113.083 356.749v18.409c0 2.843-2.308 5.151-5.151 5.151h-21.778c2.854 0 5.151-2.308 5.151-5.151v-18.409c0-2.843-2.297-5.151-5.151-5.151h21.778c2.843 0 5.151 2.307 5.151 5.151z" fill="#9ce6fb"/></g><g><path d="m50.676 406.358h57.251c2.845 0 5.151 2.306 5.151 5.151v18.404c0 2.845-2.306 5.151-5.151 5.151h-57.251c-2.845 0-5.151-2.306-5.151-5.151v-18.404c0-2.845 2.306-5.151 5.151-5.151z" fill="#c9f0fd"/><path d="m113.083 411.513v18.399c0 2.843-2.308 5.151-5.151 5.151h-21.778c2.854 0 5.151-2.308 5.151-5.151v-18.399c0-2.854-2.297-5.151-5.151-5.151h21.778c2.843 0 5.151 2.297 5.151 5.151z" fill="#9ce6fb"/><path d="m107.927 414.085h.011z"/></g><g><path d="m404.073 351.6h57.251c2.845 0 5.151 2.306 5.151 5.151v18.403c0 2.845-2.306 5.151-5.151 5.151h-57.251c-2.845 0-5.151-2.306-5.151-5.151v-18.403c0-2.845 2.306-5.151 5.151-5.151z" fill="#c9f0fd"/><path d="m466.476 356.749v18.409c0 2.843-2.308 5.151-5.151 5.151h-21.768c2.843 0 5.151-2.308 5.151-5.151v-18.409c0-2.843-2.308-5.151-5.151-5.151h21.768c2.844 0 5.151 2.307 5.151 5.151z" fill="#9ce6fb"/></g><g><path d="m404.073 406.358h57.251c2.845 0 5.151 2.306 5.151 5.151v18.404c0 2.845-2.306 5.151-5.151 5.151h-57.251c-2.845 0-5.151-2.306-5.151-5.151v-18.404c0-2.845 2.306-5.151 5.151-5.151z" fill="#c9f0fd"/><path d="m466.476 411.513v18.399c0 2.843-2.308 5.151-5.151 5.151h-21.768c2.843 0 5.151-2.308 5.151-5.151v-18.399c0-2.854-2.308-5.151-5.151-5.151h21.768c2.844 0 5.151 2.297 5.151 5.151z" fill="#9ce6fb"/></g></g></g><g><g><path d="m370.123 95.58v416.42h-228.247v-416.42c0-5.697 4.615-10.302 10.302-10.302h207.643c5.687 0 10.302 4.605 10.302 10.302z" fill="#d9e7eb"/><path d="m341.278 110.662c0 47.1-38.179 85.278-85.278 85.278s-85.278-38.178-85.278-85.278c0-8.839 1.339-17.369 3.843-25.384h162.872c2.502 8.015 3.841 16.545 3.841 25.384z" fill="#c5d3dd"/><path d="m317.285 374.193v137.807h-122.57v-137.807c0-2.843 2.297-5.151 5.151-5.151h112.269c2.853 0 5.15 2.307 5.15 5.151z" fill="#9ce6fb"/><path d="m317.285 374.193v137.807h-29.113v-137.807c0-2.843-2.308-5.151-5.151-5.151h29.113c2.854 0 5.151 2.307 5.151 5.151z" fill="#68dbf9"/><path d="m370.123 95.58v416.42h-31.668v-416.42c0-5.697-4.615-10.302-10.302-10.302h31.668c5.687 0 10.302 4.605 10.302 10.302z" fill="#c5d3dd"/></g><g><circle cx="256" cy="85.275" fill="#f5f7f8" r="85.275"/><g><path d="m295.679 64.785h-19.188v-19.187c0-3.813-3.091-6.903-6.903-6.903h-27.176c-3.813 0-6.903 3.091-6.903 6.903v19.188h-19.188c-3.813 0-6.903 3.091-6.903 6.903v27.176c0 3.813 3.091 6.903 6.903 6.903h19.188v19.188c0 3.813 3.091 6.903 6.903 6.903h27.176c3.813 0 6.903-3.091 6.903-6.903v-19.188h19.188c3.813 0 6.903-3.091 6.903-6.903v-27.176c0-3.813-3.091-6.904-6.903-6.904z" fill="#fb4a59"/><path d="m302.577 71.689v27.179c0 3.813-3.091 6.903-6.903 6.903h-19.181v19.181c0 3.817-3.097 6.903-6.903 6.903h-22.239c3.807 0 6.903-3.087 6.903-6.903v-12.278c0-3.813 3.091-6.903 6.903-6.903h12.278c3.813 0 6.903-3.091 6.903-6.903v-27.179c0-3.813-3.091-6.903-6.903-6.903h-12.278c-3.813 0-6.903-3.091-6.903-6.903v-12.289c0-3.807-3.097-6.903-6.903-6.903h22.239c3.813 0 6.903 3.091 6.903 6.903v19.191h19.181c3.813 0 6.903 3.091 6.903 6.904z" fill="#f82f40"/></g></g></g></g><path d="m248.274 369.042h15.453v142.958h-15.453z" fill="#64b9fc"/><g><path d="m312.139 326.191h-112.278c-2.845 0-5.151-2.306-5.151-5.151v-22.338c0-2.845 2.306-5.151 5.151-5.151h112.278c2.845 0 5.151 2.306 5.151 5.151v22.338c0 2.845-2.306 5.151-5.151 5.151z" fill="#9ce6fb"/><path d="m317.285 298.701v22.334c0 2.854-2.297 5.151-5.151 5.151h-29.113c2.843 0 5.151-2.297 5.151-5.151v-22.334c0-2.843-2.308-5.151-5.151-5.151h29.113c2.854 0 5.151 2.308 5.151 5.151z" fill="#68dbf9"/></g><g><path d="m312.139 262.884h-112.278c-2.845 0-5.151-2.306-5.151-5.151v-47.063c0-2.845 2.306-5.151 5.151-5.151h112.278c2.845 0 5.151 2.306 5.151 5.151v47.063c0 2.845-2.306 5.151-5.151 5.151z" fill="#9ce6fb"/><path d="m317.285 210.672v47.059c0 2.843-2.297 5.151-5.151 5.151h-29.113c2.843 0 5.151-2.308 5.151-5.151v-47.059c0-2.843-2.308-5.151-5.151-5.151h29.113c2.854 0 5.151 2.308 5.151 5.151z" fill="#68dbf9"/></g></g></svg>