<svg id="Flat" enable-background="new 0 0 124.001 124.129" height="512" viewBox="0 0 124.001 124.129" width="512" xmlns="http://www.w3.org/2000/svg"><g id="XMLID_2_"><g><path d="m20.8 22.115c.76-1.22 1.2-2.39 1.48-3.81.31-1.53.33-3.21-.3-4.78-.74-1.82-2.65-2.94-4.5-3.01.03-4.79-1.72-6.05-4.5-6.05-1.06 0-1.86.54-2.44 1.24-.4-.18-1.68-.26-2.41-.16-.8.1-1.53.29-2.36.94-.54.42-.89.92-1.12 1.39-.09-.11-.35-.31-.59-.45 0 0-.45-.24-1.03-.19-1.03.08-1.83 1.62-1.94 1.81-1.47 2.49-1.45 7.18.04 9.26.02.26.29 2.85 1.82 5.26 0 0-1.74 28.17 16.21 52.5 4.76-5.89 11.33-9.91 11.33-9.91-11.85-21.78-9.69-44.04-9.69-44.04z" fill="#ffd7d2"/><g fill="#fec4b9"><path d="m17.431 16.137c-.549-.225-2.193-1.122-2.524-2.264-.146-.501-.021-1.033.378-1.623.27-.249.591-.437.954-.56.523-.178.802-.746.625-1.269s-.746-.801-1.269-.625c-.678.231-1.274.596-1.773 1.086-.042.041-.08.086-.114.134-1.005 1.414-.947 2.637-.721 3.415.269.924.884 1.657 1.536 2.22-.047.022-.091.052-.139.072-.447.189-.742.229-.835.237-.002 0-.31.019-.612-.032-1.251-.209-2.668-2.016-2.829-4.951-.031-.552-.513-.971-1.053-.944-.551.03-.974.502-.944 1.053.144 2.629 1.174 4.82 2.669 5.978-.476.322-1.075.614-1.712.614-.879 0-1.579-.285-2.138-.87-1.416-1.482-1.599-4.58-1.55-5.648.025-.551-.401-1.019-.952-1.045-.539-.032-1.019.398-1.046.95-.007.15-.12 2.955.935 5.323-.034.079-.056.161-.099.237-.098.175-.242.433-.436.582-.125.048-.454.162-.834.15-.509.007-1.009.427-1.021.979-.011.552.427 1.009.979 1.021h.08c.935 0 1.643-.334 1.723-.374.033-.016.065-.034.096-.054.314-.2.554-.449.741-.687.935.948 2.117 1.436 3.522 1.436 1.733 0 3.154-1.118 3.817-1.746.195.019.379.03.518.03.157 0 .266-.007.293-.009.308-.025.813-.112 1.467-.389.432-.183.836-.43 1.226-.705.134.063.242.111.287.129.124.051.251.075.377.075.395 0 .768-.235.926-.623.209-.511-.037-1.094-.548-1.303z"/><path d="m8.364 26.439c-1.356-.363-2.529-1.046-3.487-2.03-.385-.396-1.019-.404-1.414-.019s-.404 1.018-.019 1.414c1.212 1.246 2.694 2.109 4.402 2.566.087.023.174.035.259.035.442 0 .846-.295.965-.742.144-.533-.172-1.081-.706-1.224z"/></g><path d="m122.91 9.055c-.11-.19-.91-1.73-1.94-1.82-.58-.05-1.02.2-1.02.2-.24.13-.49.32-.59.44-.24-.47-.6-.96-1.13-1.38-.83-.65-1.55-.84-2.36-.95-.73-.09-2.01-.01-2.41.17-.58-.7-1.37-1.24-2.43-1.24-2.79 0-4.54 1.26-4.51 6.05-1.85.07-3.76 1.19-4.5 3.01-.63 1.56-.6 3.25-.3 4.78.28 1.42.73 2.59 1.48 3.8 0 0 2.16 22.27-9.69 44.05 0 0 6.58 4.02 11.33 9.91 17.95-24.33 16.21-52.5 16.21-52.5 1.62-2.54 1.83-5.28 1.83-5.28 1.48-2.1 1.5-6.76.03-9.24z" fill="#ffd7d2"/><g fill="#fec4b9"><g><path d="m121.057 18.363c-.379.026-.712-.103-.834-.15-.194-.149-.339-.407-.437-.582-.041-.075-.064-.158-.098-.237 1.054-2.368.942-5.173.934-5.323-.027-.552-.51-.971-1.047-.951-.552.027-.977.496-.951 1.047.052 1.064-.126 4.152-1.547 5.644-.56.587-1.26.873-2.141.873-.613 0-1.22-.284-1.713-.614 1.496-1.157 2.526-3.349 2.67-5.978.03-.551-.393-1.023-.944-1.053-.542-.028-1.023.392-1.053.944-.161 2.935-1.578 4.741-2.83 4.951-.174.029-.351.035-.466.035-.162 0-.133-.003-.133-.003-.083-.006-.387-.043-.847-.237-.048-.02-.092-.051-.139-.073.653-.563 1.268-1.295 1.536-2.219.226-.777.284-2.001-.721-3.415-.034-.048-.072-.093-.114-.134-.517-.508-1.138-.882-1.847-1.111-.526-.169-1.089.119-1.259.644s.119 1.089.644 1.259c.381.123.717.316.998.575.399.589.523 1.12.379 1.62-.328 1.138-1.935 2.023-2.525 2.268-.511.209-.757.792-.548 1.304.158.388.532.623.926.623.126 0 .254-.024.377-.075.045-.018.152-.066.286-.129.389.275.794.522 1.227.706.657.277 1.161.365 1.476.39.023.001.128.008.283.008.139 0 .324-.011.52-.03.663.628 2.084 1.746 3.817 1.746 1.405 0 2.587-.488 3.522-1.436.186.238.427.487.742.687l.003-.005c.375.227 1.11.433 1.82.433h.074c.552-.012.991-.468.979-1.021-.01-.554-.46-1.005-1.019-.981z"/><path d="m119.041 24.502c-.942.938-2.087 1.592-3.403 1.945-.533.143-.85.691-.707 1.225.12.447.523.742.965.742.085 0 .172-.011.259-.035 1.659-.444 3.104-1.271 4.297-2.459.392-.39.393-1.023.003-1.414-.389-.392-1.023-.394-1.414-.004z"/></g><path d="m37.04 38.225c-.01 0-.01 0-.01 0-.31.05-.62.13-.92.25-3.07 1.2-4.46 5.16-3.08 8.83 1.19 3.18 4.04 5.1 6.79 4.78-.015-3.903-.907-8.796-2.78-13.86z"/><path d="m87.89 38.475c-.3-.12-.61-.2-.92-.25 0 0 0 0-.01 0-1.801 5.032-2.799 9.906-2.78 13.86 2.75.32 5.6-1.6 6.79-4.78 1.38-3.67-.01-7.63-3.08-8.83z"/></g><path d="m67.4 67.335v8.34c-1.07 1.15-2.38 3.41-5.4 3.49-3.02-.08-4.33-2.35-5.39-3.5h-.01v-8.33c1.97-.47 3.32-.66 5.17-.66s3.89.35 5.63.66z" fill="#ffd7d2"/><path d="m67.4 67.335v4.26c-.91.18-1.85.27-2.81.27-2.95 0-5.69-.86-7.99-2.36v-2.17c1.97-.47 3.32-.66 5.17-.66s3.89.35 5.63.66z" fill="#f7b6ad"/><path d="m83.49 30.955c-.54-6.36-1.18-7.17-2.65-9.38-3.12-4.69-9.2-5.77-10.61-6.02-3.58-.64-6.56-.09-8.23.35-1.67-.44-4.65-.99-8.23-.35-1.41.25-7.49 1.33-10.61 6.02-1.47 2.21-2.11 3.02-2.65 9.38-.34 3.9-3.27 7.05-3.47 7.27.52 5.3 1.49 10.18 2.78 13.86h.01c.54 1.59 1.16 2.96 1.82 4.04 2.43 3.99 8.1 9.25 14.95 11.21 1.74.5 3.55.79 5.4.79s3.66-.29 5.4-.79c6.85-1.96 12.52-7.22 14.95-11.21.66-1.08 1.28-2.45 1.82-4.04h.01c1.29-3.68 2.26-8.56 2.78-13.86-.2-.22-3.13-3.37-3.47-7.27z" fill="#ffd7d2"/><path d="m62.168 0c-20.35 0-25.43 18-25.43 29 0 3.08-.008 6.285.292 9.225 0 0 .168-.125.178-.125.2-.22 3.13-3.37 3.47-7.27.54-6.36 1.18-7.17 2.65-9.38 3.12-4.69 9.381-5.704 10.791-5.954 3.58-.64 6.211-.031 7.881.409 1.67-.44 4.837-.957 8.417-.317 1.41.25 7.303 1.297 10.423 5.987 1.47 2.21 2.11 3.02 2.65 9.38.34 3.9 3.27 7.05 3.47 7.27h.01c.3-2.94.628-6.145.628-9.225 0-11-5.08-29-25.43-29z" fill="#3f2313"/><path d="m81.41 107.145s1.55-1.59 1.55-4.08-3.63-3.96-3.63-3.96c2.4 0 3.5-3.96 3.5-3.96h-1.3-4.07-.15-.11-3.81-1.71s1.1 3.96 3.5 3.96c0 0-3.63 1.47-3.63 3.96s1.55 4.08 1.55 4.08l-3.92.04v4.94h4.21 3.81.11.15 4.07 3.8v-4.94z" fill="#d6eae8"/><path d="m38.54 74.535c-.29.71-.45 1.48-.45 2.29 0 3.39 2.79 6.13 6.24 6.13 3.31 0 6.02-2.48 6.22-5.68v-.01c-4.88.58-8.89-.79-12.01-2.73z" fill="#ef9d26"/><path d="m30.49 66.155s-6.57 4.02-11.33 9.91c-2.66 3.3-4.76 7.2-4.81 11.3 0 0 .35 1.07 1.49 2.7 4.73-11.57 16.87-20.73 16.87-20.73-1.47-1.8-2.22-3.18-2.22-3.18z" fill="#ef9d26"/><path d="m32.71 69.335s-12.14 9.16-16.87 20.73v.01c.65.94 1.56 2.06 2.81 3.28 4.73-11.56 17.03-20.95 17.03-20.95-1.2-1.04-2.18-2.11-2.97-3.07z" fill="#524956"/><path d="m104.84 76.075c-4.75-5.89-11.33-9.91-11.33-9.91s-.75 1.38-2.22 3.18c0 0 12.14 9.16 16.88 20.72 1.13-1.62 1.48-2.69 1.48-2.69-.05-4.1-2.14-7.99-4.81-11.3z" fill="#c43b58"/><path d="m91.29 69.345c-.78.96-1.77 2.03-2.97 3.07 0 0 12.3 9.39 17.03 20.95 1.26-1.22 2.17-2.36 2.82-3.3-4.74-11.56-16.88-20.72-16.88-20.72z" fill="#524956"/><path d="m67.4 75.675c-1.07 1.15-2.38 2.18-5.4 2.26-3.02-.08-4.33-1.12-5.39-2.27h-.01c-1.1.45-2.17.8-3.2 1.07 0 0 1.5 4.75 8.57 4.78h.06c7.08-.03 8.57-4.77 8.57-4.77-1.03-.27-2.1-.62-3.2-1.07z" fill="#47394f"/><g fill="#f9b132"><path d="m77.46 112.125h4.07v12h-4.07z"/><path d="m81.28 76.515c-1.19.4-2.46.68-3.82.8v17.83h4.07v-.05-17.83z"/></g><g fill="#c43b58"><path d="m77.2 112.125h-3.81v12h4.07v-12h-.15z"/><path d="m73.39 77.265v17.83.05h3.81.11.15v-17.83c-1.28.14-2.64.13-4.07-.05z"/></g><g fill="#349370"><path d="m88.32 72.415c-1.85 1.62-4.2 3.17-7.04 4.1l.25.75v17.83.05h1.3s-1.1 3.96-3.5 3.96c0 0 3.63 1.47 3.63 3.96s-1.55 4.08-1.55 4.08l3.92.04v4.94h-3.8v12h9.29v-20.53c0-1.1.68-2.08 1.71-2.48 6.21-2.37 10.24-5.25 12.82-7.75-4.73-11.56-17.03-20.95-17.03-20.95z"/><path d="m75.18 99.105c-2.4 0-3.5-3.96-3.5-3.96h1.71v-.05-17.83c-.9-.1-1.83-.27-2.79-.52 0 0-1.49 4.74-8.57 4.77-.02 0-.04 0-.06 0-7.07-.03-8.57-4.78-8.57-4.78-.98.25-1.93.43-2.85.53v.01c-.2 3.2-2.91 5.68-6.22 5.68-3.45 0-6.24-2.74-6.24-6.13 0-.81.16-1.58.45-2.29-1.06-.66-2.01-1.39-2.86-2.13 0 0-12.3 9.39-17.03 20.95 2.58 2.5 6.61 5.37 12.82 7.75 1.03.4 1.71 1.39 1.71 2.48v20.54h40.21v-12h-4.21v-4.94l3.92-.04s-1.55-1.59-1.55-4.08 3.63-3.96 3.63-3.96z"/></g></g><g><g fill="#472d1c"><path d="m76.08 27.843c-2.527-1.754-5.879-1.198-6.02-1.174-.543.094-.907.61-.814 1.153s.61.908 1.152.818c.028-.005 2.697-.434 4.542.846.174.121.372.178.569.178.317 0 .628-.15.823-.43.314-.453.202-1.076-.252-1.391z"/><path d="m53.941 26.669c-.141-.024-3.493-.579-6.02 1.174-.454.315-.566.938-.252 1.392.194.28.506.43.823.43.197 0 .395-.058.569-.178 1.833-1.271 4.482-.856 4.541-.846.546.094 1.06-.272 1.154-.815.094-.545-.271-1.062-.815-1.157z"/></g><g><g id="XMLID_26_"><g><path d="m33.116 124.117v-17.51c0-.57.46-1.03 1.03-1.03.55 0 1 .44 1.02.99.25 6.55 1.87 12.49 3.88 17.54z" fill="#d6eae8"/></g></g></g><g><g id="XMLID_36_"><g><path d="m90.82 124.109-7.8.02c2.86-2.84 4.72-10.01 5.6-17.58.06-.56.53-.98 1.09-.98.62 0 1.11.49 1.11 1.11z" fill="#d6eae8"/></g></g></g><path d="m67.07 42.705c-.3-1.05-1.29-1.79-2.41-1.79-.23 0-.46.03-.68.09-.6.17-1.21.26-1.81.26-.61 0-1.22-.09-1.82-.26-.22-.06-.45-.09-.68-.09-1.11 0-2.1.73-2.4 1.79-.38 1.3.4 2.66 1.72 3.02 1.05.3 2.12.45 3.18.45s2.13-.15 3.17-.45c1.33-.36 2.1-1.72 1.73-3.02z" fill="#f7b6ad"/><g fill="#543927"><path d="m52.21 36.595c-2.047 0-3.65 1.318-3.65 3 0 .552.448 1 1 1s1-.448 1-1c0-.472.706-1 1.65-1s1.65.528 1.65 1c0 .552.448 1 1 1s1-.448 1-1c0-1.654-1.637-3-3.65-3z"/><path d="m71.85 36.595c-2.047 0-3.65 1.318-3.65 3 0 .552.448 1 1 1s1-.448 1-1c0-.473.678-1 1.65-1 .944 0 1.65.528 1.65 1 0 .552.448 1 1 1s1-.448 1-1c0-1.654-1.637-3-3.65-3z"/></g></g></g></svg>